<mxfile host="app.diagrams.net" modified="2021-05-14T16:56:07.328Z" agent="5.0 (Windows NT 10.0; Win64; x64) AppleWebKit/537.36 (KHTML, like Gecko) Chrome/90.0.4430.212 Safari/537.36" etag="ZwpsOsi7sJm7CP7QebEc" version="14.6.13" type="github">
  <diagram id="hhGrgIeln4jg-UxJGz9t" name="Page-1">
    <mxGraphModel dx="1422" dy="772" grid="1" gridSize="10" guides="1" tooltips="1" connect="1" arrows="1" fold="1" page="1" pageScale="1" pageWidth="850" pageHeight="1100" math="0" shadow="0">
      <root>
        <mxCell id="0" />
        <mxCell id="1" parent="0" />
        <mxCell id="JwghE18n7pxGgrkGDkTh-6" value="" style="edgeStyle=orthogonalEdgeStyle;rounded=0;orthogonalLoop=1;jettySize=auto;html=1;" edge="1" parent="1" source="JwghE18n7pxGgrkGDkTh-1" target="JwghE18n7pxGgrkGDkTh-4">
          <mxGeometry relative="1" as="geometry" />
        </mxCell>
        <mxCell id="JwghE18n7pxGgrkGDkTh-1" value="Viewer" style="shape=umlActor;verticalLabelPosition=bottom;verticalAlign=top;html=1;outlineConnect=0;" vertex="1" parent="1">
          <mxGeometry x="90" y="50" width="60" height="100" as="geometry" />
        </mxCell>
        <mxCell id="JwghE18n7pxGgrkGDkTh-13" value="" style="edgeStyle=orthogonalEdgeStyle;rounded=0;orthogonalLoop=1;jettySize=auto;html=1;" edge="1" parent="1" source="JwghE18n7pxGgrkGDkTh-4" target="JwghE18n7pxGgrkGDkTh-9">
          <mxGeometry relative="1" as="geometry" />
        </mxCell>
        <mxCell id="JwghE18n7pxGgrkGDkTh-4" value="Visit Home Page" style="rounded=1;whiteSpace=wrap;html=1;" vertex="1" parent="1">
          <mxGeometry x="240" y="60" width="130" height="60" as="geometry" />
        </mxCell>
        <mxCell id="JwghE18n7pxGgrkGDkTh-12" value="" style="edgeStyle=orthogonalEdgeStyle;rounded=0;orthogonalLoop=1;jettySize=auto;html=1;" edge="1" parent="1" source="JwghE18n7pxGgrkGDkTh-9" target="JwghE18n7pxGgrkGDkTh-11">
          <mxGeometry relative="1" as="geometry" />
        </mxCell>
        <mxCell id="JwghE18n7pxGgrkGDkTh-9" value="Get List of Blog posts from API" style="rounded=1;whiteSpace=wrap;html=1;" vertex="1" parent="1">
          <mxGeometry x="425" y="60" width="110" height="60" as="geometry" />
        </mxCell>
        <mxCell id="JwghE18n7pxGgrkGDkTh-11" value="Show the list of Blog on the Home Page" style="rounded=1;whiteSpace=wrap;html=1;" vertex="1" parent="1">
          <mxGeometry x="580" y="60" width="120" height="60" as="geometry" />
        </mxCell>
        <mxCell id="JwghE18n7pxGgrkGDkTh-14" value="" style="edgeStyle=orthogonalEdgeStyle;rounded=0;orthogonalLoop=1;jettySize=auto;html=1;" edge="1" parent="1" source="JwghE18n7pxGgrkGDkTh-15" target="JwghE18n7pxGgrkGDkTh-17">
          <mxGeometry relative="1" as="geometry" />
        </mxCell>
        <mxCell id="JwghE18n7pxGgrkGDkTh-15" value="Viewer" style="shape=umlActor;verticalLabelPosition=bottom;verticalAlign=top;html=1;outlineConnect=0;" vertex="1" parent="1">
          <mxGeometry x="90" y="210" width="60" height="100" as="geometry" />
        </mxCell>
        <mxCell id="JwghE18n7pxGgrkGDkTh-16" value="" style="edgeStyle=orthogonalEdgeStyle;rounded=0;orthogonalLoop=1;jettySize=auto;html=1;" edge="1" parent="1" source="JwghE18n7pxGgrkGDkTh-17" target="JwghE18n7pxGgrkGDkTh-19">
          <mxGeometry relative="1" as="geometry" />
        </mxCell>
        <mxCell id="JwghE18n7pxGgrkGDkTh-17" value="Visit Home Page" style="rounded=1;whiteSpace=wrap;html=1;" vertex="1" parent="1">
          <mxGeometry x="240" y="220" width="130" height="60" as="geometry" />
        </mxCell>
        <mxCell id="JwghE18n7pxGgrkGDkTh-18" value="" style="edgeStyle=orthogonalEdgeStyle;rounded=0;orthogonalLoop=1;jettySize=auto;html=1;" edge="1" parent="1" source="JwghE18n7pxGgrkGDkTh-19" target="JwghE18n7pxGgrkGDkTh-20">
          <mxGeometry relative="1" as="geometry" />
        </mxCell>
        <mxCell id="JwghE18n7pxGgrkGDkTh-19" value="Select individual Blog Post" style="rounded=1;whiteSpace=wrap;html=1;" vertex="1" parent="1">
          <mxGeometry x="425" y="220" width="110" height="60" as="geometry" />
        </mxCell>
        <mxCell id="JwghE18n7pxGgrkGDkTh-22" style="edgeStyle=orthogonalEdgeStyle;rounded=0;orthogonalLoop=1;jettySize=auto;html=1;entryX=0;entryY=0.5;entryDx=0;entryDy=0;" edge="1" parent="1" source="JwghE18n7pxGgrkGDkTh-20" target="JwghE18n7pxGgrkGDkTh-21">
          <mxGeometry relative="1" as="geometry" />
        </mxCell>
        <mxCell id="JwghE18n7pxGgrkGDkTh-20" value="Redirect to pos&lt;span style=&quot;color: rgba(0 , 0 , 0 , 0) ; font-family: monospace ; font-size: 0px&quot;&gt;CmxGraphModel%3E%3Croot%3E%3CmxCell%20id%3D%220%22%2F%3E%3CmxCell%20id%3D%221%22%20parent%3D%220%22%2F%3E%3CmxCell%20id%3D%222%22%20value%3D%22%22%20style%3D%22edgeStyle%3DorthogonalEdgeStyle%3Brounded%3D0%3BorthogonalLoop%3D1%3BjettySize%3Dauto%3Bhtml%3D1%3B%22%20edge%3D%221%22%20source%3D%223%22%20target%3D%225%22%20parent%3D%221%22%3E%3CmxGeometry%20relative%3D%221%22%20as%3D%22geometry%22%2F%3E%3C%2FmxCell%3E%3CmxCell%20id%3D%223%22%20value%3D%22Viewer%22%20style%3D%22shape%3DumlActor%3BverticalLabelPosition%3Dbottom%3BverticalAlign%3Dtop%3Bhtml%3D1%3BoutlineConnect%3D0%3B%22%20vertex%3D%221%22%20parent%3D%221%22%3E%3CmxGeometry%20x%3D%2290%22%20y%3D%2250%22%20width%3D%2260%22%20height%3D%22100%22%20as%3D%22geometry%22%2F%3E%3C%2FmxCell%3E%3CmxCell%20id%3D%224%22%20value%3D%22%22%20style%3D%22edgeStyle%3DorthogonalEdgeStyle%3Brounded%3D0%3BorthogonalLoop%3D1%3BjettySize%3Dauto%3Bhtml%3D1%3B%22%20edge%3D%221%22%20source%3D%225%22%20target%3D%227%22%20parent%3D%221%22%3E%3CmxGeometry%20relative%3D%221%22%20as%3D%22geometry%22%2F%3E%3C%2FmxCell%3E%3CmxCell%20id%3D%225%22%20value%3D%22Visit%20Home%20Page%22%20style%3D%22rounded%3D1%3BwhiteSpace%3Dwrap%3Bhtml%3D1%3B%22%20vertex%3D%221%22%20parent%3D%221%22%3E%3CmxGeometry%20x%3D%22240%22%20y%3D%2260%22%20width%3D%22130%22%20height%3D%2260%22%20as%3D%22geometry%22%2F%3E%3C%2FmxCell%3E%3CmxCell%20id%3D%226%22%20value%3D%22%22%20style%3D%22edgeStyle%3DorthogonalEdgeStyle%3Brounded%3D0%3BorthogonalLoop%3D1%3BjettySize%3Dauto%3Bhtml%3D1%3B%22%20edge%3D%221%22%20source%3D%227%22%20target%3D%228%22%20parent%3D%221%22%3E%3CmxGeometry%20relative%3D%221%22%20as%3D%22geometry%22%2F%3E%3C%2FmxCell%3E%3CmxCell%20id%3D%227%22%20value%3D%22Get%20List%20of%20Blog%20posts%20from%20API%22%20style%3D%22rounded%3D1%3BwhiteSpace%3Dwrap%3Bhtml%3D1%3B%22%20vertex%3D%221%22%20parent%3D%221%22%3E%3CmxGeometry%20x%3D%22425%22%20y%3D%2260%22%20width%3D%22110%22%20height%3D%2260%22%20as%3D%22geometry%22%2F%3E%3C%2FmxCell%3E%3CmxCell%20id%3D%228%22%20value%3D%22Show%20the%20list%20of%20Blog%20on%20the%20Home%20Page%22%20style%3D%22rounded%3D1%3BwhiteSpace%3Dwrap%3Bhtml%3D1%3B%22%20vertex%3D%221%22%20parent%3D%221%22%3E%3CmxGeometry%20x%3D%22580%22%20y%3D%2260%22%20width%3D%22120%22%20height%3D%2260%22%20as%3D%22geometry%22%2F%3E%3C%2FmxCell%3E%3C%2Froot%3E%3C%2FmxGraphModel%3&lt;/span&gt;t page" style="rounded=1;whiteSpace=wrap;html=1;" vertex="1" parent="1">
          <mxGeometry x="600" y="220" width="150" height="60" as="geometry" />
        </mxCell>
        <mxCell id="JwghE18n7pxGgrkGDkTh-25" value="" style="edgeStyle=orthogonalEdgeStyle;rounded=0;orthogonalLoop=1;jettySize=auto;html=1;" edge="1" parent="1" source="JwghE18n7pxGgrkGDkTh-21" target="JwghE18n7pxGgrkGDkTh-23">
          <mxGeometry relative="1" as="geometry" />
        </mxCell>
        <mxCell id="JwghE18n7pxGgrkGDkTh-21" value="Get post date from API" style="rounded=1;whiteSpace=wrap;html=1;" vertex="1" parent="1">
          <mxGeometry x="790" y="220" width="110" height="60" as="geometry" />
        </mxCell>
        <mxCell id="JwghE18n7pxGgrkGDkTh-23" value="Show full Blog post" style="rounded=1;whiteSpace=wrap;html=1;" vertex="1" parent="1">
          <mxGeometry x="960" y="220" width="120" height="60" as="geometry" />
        </mxCell>
        <mxCell id="JwghE18n7pxGgrkGDkTh-26" value="" style="edgeStyle=orthogonalEdgeStyle;rounded=0;orthogonalLoop=1;jettySize=auto;html=1;" edge="1" parent="1" source="JwghE18n7pxGgrkGDkTh-27" target="JwghE18n7pxGgrkGDkTh-29">
          <mxGeometry relative="1" as="geometry" />
        </mxCell>
        <mxCell id="JwghE18n7pxGgrkGDkTh-27" value="Admin" style="shape=umlActor;verticalLabelPosition=bottom;verticalAlign=top;html=1;outlineConnect=0;" vertex="1" parent="1">
          <mxGeometry x="90" y="360" width="60" height="100" as="geometry" />
        </mxCell>
        <mxCell id="JwghE18n7pxGgrkGDkTh-28" value="" style="edgeStyle=orthogonalEdgeStyle;rounded=0;orthogonalLoop=1;jettySize=auto;html=1;" edge="1" parent="1" source="JwghE18n7pxGgrkGDkTh-29" target="JwghE18n7pxGgrkGDkTh-31">
          <mxGeometry relative="1" as="geometry" />
        </mxCell>
        <mxCell id="JwghE18n7pxGgrkGDkTh-29" value="Visit Home Page" style="rounded=1;whiteSpace=wrap;html=1;" vertex="1" parent="1">
          <mxGeometry x="240" y="370" width="130" height="60" as="geometry" />
        </mxCell>
        <mxCell id="JwghE18n7pxGgrkGDkTh-30" value="" style="edgeStyle=orthogonalEdgeStyle;rounded=0;orthogonalLoop=1;jettySize=auto;html=1;" edge="1" parent="1" source="JwghE18n7pxGgrkGDkTh-31" target="JwghE18n7pxGgrkGDkTh-33">
          <mxGeometry relative="1" as="geometry" />
        </mxCell>
        <mxCell id="JwghE18n7pxGgrkGDkTh-31" value="Click &quot;add new&quot; post button" style="rounded=1;whiteSpace=wrap;html=1;" vertex="1" parent="1">
          <mxGeometry x="425" y="370" width="110" height="60" as="geometry" />
        </mxCell>
        <mxCell id="JwghE18n7pxGgrkGDkTh-32" style="edgeStyle=orthogonalEdgeStyle;rounded=0;orthogonalLoop=1;jettySize=auto;html=1;entryX=0;entryY=0.5;entryDx=0;entryDy=0;" edge="1" parent="1" source="JwghE18n7pxGgrkGDkTh-33" target="JwghE18n7pxGgrkGDkTh-35">
          <mxGeometry relative="1" as="geometry" />
        </mxCell>
        <mxCell id="JwghE18n7pxGgrkGDkTh-33" value="Redirect to pos&lt;span style=&quot;color: rgba(0 , 0 , 0 , 0) ; font-family: monospace ; font-size: 0px&quot;&gt;CmxGraphModel%3E%3Croot%3E%3CmxCell%20id%3D%220%22%2F%3E%3CmxCell%20id%3D%221%22%20parent%3D%220%22%2F%3E%3CmxCell%20id%3D%222%22%20value%3D%22%22%20style%3D%22edgeStyle%3DorthogonalEdgeStyle%3Brounded%3D0%3BorthogonalLoop%3D1%3BjettySize%3Dauto%3Bhtml%3D1%3B%22%20edge%3D%221%22%20source%3D%223%22%20target%3D%225%22%20parent%3D%221%22%3E%3CmxGeometry%20relative%3D%221%22%20as%3D%22geometry%22%2F%3E%3C%2FmxCell%3E%3CmxCell%20id%3D%223%22%20value%3D%22Viewer%22%20style%3D%22shape%3DumlActor%3BverticalLabelPosition%3Dbottom%3BverticalAlign%3Dtop%3Bhtml%3D1%3BoutlineConnect%3D0%3B%22%20vertex%3D%221%22%20parent%3D%221%22%3E%3CmxGeometry%20x%3D%2290%22%20y%3D%2250%22%20width%3D%2260%22%20height%3D%22100%22%20as%3D%22geometry%22%2F%3E%3C%2FmxCell%3E%3CmxCell%20id%3D%224%22%20value%3D%22%22%20style%3D%22edgeStyle%3DorthogonalEdgeStyle%3Brounded%3D0%3BorthogonalLoop%3D1%3BjettySize%3Dauto%3Bhtml%3D1%3B%22%20edge%3D%221%22%20source%3D%225%22%20target%3D%227%22%20parent%3D%221%22%3E%3CmxGeometry%20relative%3D%221%22%20as%3D%22geometry%22%2F%3E%3C%2FmxCell%3E%3CmxCell%20id%3D%225%22%20value%3D%22Visit%20Home%20Page%22%20style%3D%22rounded%3D1%3BwhiteSpace%3Dwrap%3Bhtml%3D1%3B%22%20vertex%3D%221%22%20parent%3D%221%22%3E%3CmxGeometry%20x%3D%22240%22%20y%3D%2260%22%20width%3D%22130%22%20height%3D%2260%22%20as%3D%22geometry%22%2F%3E%3C%2FmxCell%3E%3CmxCell%20id%3D%226%22%20value%3D%22%22%20style%3D%22edgeStyle%3DorthogonalEdgeStyle%3Brounded%3D0%3BorthogonalLoop%3D1%3BjettySize%3Dauto%3Bhtml%3D1%3B%22%20edge%3D%221%22%20source%3D%227%22%20target%3D%228%22%20parent%3D%221%22%3E%3CmxGeometry%20relative%3D%221%22%20as%3D%22geometry%22%2F%3E%3C%2FmxCell%3E%3CmxCell%20id%3D%227%22%20value%3D%22Get%20List%20of%20Blog%20posts%20from%20API%22%20style%3D%22rounded%3D1%3BwhiteSpace%3Dwrap%3Bhtml%3D1%3B%22%20vertex%3D%221%22%20parent%3D%221%22%3E%3CmxGeometry%20x%3D%22425%22%20y%3D%2260%22%20width%3D%22110%22%20height%3D%2260%22%20as%3D%22geometry%22%2F%3E%3C%2FmxCell%3E%3CmxCell%20id%3D%228%22%20value%3D%22Show%20the%20list%20of%20Blog%20on%20the%20Home%20Page%22%20style%3D%22rounded%3D1%3BwhiteSpace%3Dwrap%3Bhtml%3D1%3B%22%20vertex%3D%221%22%20parent%3D%221%22%3E%3CmxGeometry%20x%3D%22580%22%20y%3D%2260%22%20width%3D%22120%22%20height%3D%2260%22%20as%3D%22geometry%22%2F%3E%3C%2FmxCell%3E%3C%2Froot%3E%3C%2FmxGraphModel%3&lt;/span&gt;t creating page" style="rounded=1;whiteSpace=wrap;html=1;" vertex="1" parent="1">
          <mxGeometry x="600" y="370" width="150" height="60" as="geometry" />
        </mxCell>
        <mxCell id="JwghE18n7pxGgrkGDkTh-34" value="" style="edgeStyle=orthogonalEdgeStyle;rounded=0;orthogonalLoop=1;jettySize=auto;html=1;" edge="1" parent="1" source="JwghE18n7pxGgrkGDkTh-35" target="JwghE18n7pxGgrkGDkTh-36">
          <mxGeometry relative="1" as="geometry" />
        </mxCell>
        <mxCell id="JwghE18n7pxGgrkGDkTh-35" value="Add title, text and image" style="rounded=1;whiteSpace=wrap;html=1;" vertex="1" parent="1">
          <mxGeometry x="790" y="370" width="110" height="60" as="geometry" />
        </mxCell>
        <mxCell id="JwghE18n7pxGgrkGDkTh-40" value="" style="edgeStyle=orthogonalEdgeStyle;rounded=0;orthogonalLoop=1;jettySize=auto;html=1;" edge="1" parent="1" source="JwghE18n7pxGgrkGDkTh-36" target="JwghE18n7pxGgrkGDkTh-39">
          <mxGeometry relative="1" as="geometry" />
        </mxCell>
        <mxCell id="JwghE18n7pxGgrkGDkTh-36" value="click Submit" style="rounded=1;whiteSpace=wrap;html=1;" vertex="1" parent="1">
          <mxGeometry x="960" y="370" width="110" height="60" as="geometry" />
        </mxCell>
        <mxCell id="JwghE18n7pxGgrkGDkTh-42" value="" style="edgeStyle=orthogonalEdgeStyle;rounded=0;orthogonalLoop=1;jettySize=auto;html=1;" edge="1" parent="1" source="JwghE18n7pxGgrkGDkTh-39" target="JwghE18n7pxGgrkGDkTh-41">
          <mxGeometry relative="1" as="geometry" />
        </mxCell>
        <mxCell id="JwghE18n7pxGgrkGDkTh-39" value="Add new blog post to APi" style="rounded=1;whiteSpace=wrap;html=1;" vertex="1" parent="1">
          <mxGeometry x="1155" y="370" width="120" height="60" as="geometry" />
        </mxCell>
        <mxCell id="JwghE18n7pxGgrkGDkTh-44" style="edgeStyle=orthogonalEdgeStyle;rounded=0;orthogonalLoop=1;jettySize=auto;html=1;" edge="1" parent="1" source="JwghE18n7pxGgrkGDkTh-41">
          <mxGeometry relative="1" as="geometry">
            <mxPoint x="202" y="90" as="targetPoint" />
            <Array as="points">
              <mxPoint x="1420" y="10" />
              <mxPoint x="202" y="10" />
            </Array>
          </mxGeometry>
        </mxCell>
        <mxCell id="JwghE18n7pxGgrkGDkTh-41" value="Redirect to Home page" style="rounded=1;whiteSpace=wrap;html=1;" vertex="1" parent="1">
          <mxGeometry x="1360" y="370" width="120" height="60" as="geometry" />
        </mxCell>
        <mxCell id="JwghE18n7pxGgrkGDkTh-45" value="" style="rounded=0;whiteSpace=wrap;html=1;" vertex="1" parent="1">
          <mxGeometry x="400" y="470" width="790" height="590" as="geometry" />
        </mxCell>
        <mxCell id="JwghE18n7pxGgrkGDkTh-48" value="" style="line;strokeWidth=2;html=1;" vertex="1" parent="1">
          <mxGeometry x="390" y="545" width="790" height="10" as="geometry" />
        </mxCell>
        <mxCell id="JwghE18n7pxGgrkGDkTh-49" value="" style="rounded=0;whiteSpace=wrap;html=1;" vertex="1" parent="1">
          <mxGeometry x="530" y="600" width="550" height="150" as="geometry" />
        </mxCell>
        <mxCell id="JwghE18n7pxGgrkGDkTh-50" value="" style="line;strokeWidth=2;direction=south;html=1;" vertex="1" parent="1">
          <mxGeometry x="640" y="600" width="10" height="150" as="geometry" />
        </mxCell>
        <mxCell id="JwghE18n7pxGgrkGDkTh-51" value="" style="rounded=0;whiteSpace=wrap;html=1;" vertex="1" parent="1">
          <mxGeometry x="530" y="780" width="550" height="150" as="geometry" />
        </mxCell>
        <mxCell id="JwghE18n7pxGgrkGDkTh-52" value="" style="line;strokeWidth=2;direction=south;html=1;" vertex="1" parent="1">
          <mxGeometry x="640" y="780" width="10" height="150" as="geometry" />
        </mxCell>
        <mxCell id="JwghE18n7pxGgrkGDkTh-54" value="" style="line;strokeWidth=2;html=1;" vertex="1" parent="1">
          <mxGeometry x="390" y="1000" width="790" height="10" as="geometry" />
        </mxCell>
        <mxCell id="JwghE18n7pxGgrkGDkTh-55" value="" style="endArrow=none;html=1;" edge="1" parent="1">
          <mxGeometry width="50" height="50" relative="1" as="geometry">
            <mxPoint x="535" y="660" as="sourcePoint" />
            <mxPoint x="585" y="610" as="targetPoint" />
          </mxGeometry>
        </mxCell>
        <mxCell id="JwghE18n7pxGgrkGDkTh-56" value="" style="endArrow=none;html=1;" edge="1" parent="1">
          <mxGeometry width="50" height="50" relative="1" as="geometry">
            <mxPoint x="545" y="670" as="sourcePoint" />
            <mxPoint x="595" y="620" as="targetPoint" />
          </mxGeometry>
        </mxCell>
        <mxCell id="JwghE18n7pxGgrkGDkTh-57" value="" style="endArrow=none;html=1;" edge="1" parent="1">
          <mxGeometry width="50" height="50" relative="1" as="geometry">
            <mxPoint x="560" y="870" as="sourcePoint" />
            <mxPoint x="610" y="820" as="targetPoint" />
          </mxGeometry>
        </mxCell>
        <mxCell id="JwghE18n7pxGgrkGDkTh-58" value="" style="endArrow=none;html=1;" edge="1" parent="1">
          <mxGeometry width="50" height="50" relative="1" as="geometry">
            <mxPoint x="580" y="900" as="sourcePoint" />
            <mxPoint x="630" y="850" as="targetPoint" />
          </mxGeometry>
        </mxCell>
        <mxCell id="JwghE18n7pxGgrkGDkTh-59" value="" style="endArrow=none;html=1;" edge="1" parent="1">
          <mxGeometry width="50" height="50" relative="1" as="geometry">
            <mxPoint x="535" y="850" as="sourcePoint" />
            <mxPoint x="585" y="800" as="targetPoint" />
          </mxGeometry>
        </mxCell>
        <mxCell id="JwghE18n7pxGgrkGDkTh-60" value="" style="endArrow=none;html=1;" edge="1" parent="1">
          <mxGeometry width="50" height="50" relative="1" as="geometry">
            <mxPoint x="570" y="700" as="sourcePoint" />
            <mxPoint x="620" y="650" as="targetPoint" />
          </mxGeometry>
        </mxCell>
        <mxCell id="JwghE18n7pxGgrkGDkTh-61" value="" style="ellipse;whiteSpace=wrap;html=1;" vertex="1" parent="1">
          <mxGeometry x="745" y="470" width="60" height="60" as="geometry" />
        </mxCell>
        <mxCell id="JwghE18n7pxGgrkGDkTh-62" value="" style="line;strokeWidth=2;html=1;" vertex="1" parent="1">
          <mxGeometry x="750" y="535" width="50" height="10" as="geometry" />
        </mxCell>
        <mxCell id="JwghE18n7pxGgrkGDkTh-63" value="&lt;font style=&quot;font-size: 48px&quot;&gt;HOME&lt;/font&gt;" style="text;html=1;strokeColor=none;fillColor=none;align=center;verticalAlign=middle;whiteSpace=wrap;rounded=0;" vertex="1" parent="1">
          <mxGeometry x="840" y="490" width="180" height="20" as="geometry" />
        </mxCell>
        <mxCell id="JwghE18n7pxGgrkGDkTh-64" value="footer" style="text;html=1;strokeColor=none;fillColor=none;align=center;verticalAlign=middle;whiteSpace=wrap;rounded=0;" vertex="1" parent="1">
          <mxGeometry x="750" y="1020" width="70" height="30" as="geometry" />
        </mxCell>
        <mxCell id="JwghE18n7pxGgrkGDkTh-65" value="POST" style="text;html=1;strokeColor=none;fillColor=none;align=center;verticalAlign=middle;whiteSpace=wrap;rounded=0;" vertex="1" parent="1">
          <mxGeometry x="780" y="630" width="40" height="20" as="geometry" />
        </mxCell>
        <mxCell id="JwghE18n7pxGgrkGDkTh-66" value="Date" style="text;html=1;strokeColor=none;fillColor=none;align=center;verticalAlign=middle;whiteSpace=wrap;rounded=0;" vertex="1" parent="1">
          <mxGeometry x="600" y="570" width="40" height="20" as="geometry" />
        </mxCell>
        <mxCell id="JwghE18n7pxGgrkGDkTh-67" value="+" style="ellipse;whiteSpace=wrap;html=1;" vertex="1" parent="1">
          <mxGeometry x="1010" y="1020" width="40" height="30" as="geometry" />
        </mxCell>
        <mxCell id="JwghE18n7pxGgrkGDkTh-69" value="Add new POst" style="text;html=1;strokeColor=none;fillColor=none;align=center;verticalAlign=middle;whiteSpace=wrap;rounded=0;" vertex="1" parent="1">
          <mxGeometry x="1070" y="1025" width="70" height="35" as="geometry" />
        </mxCell>
      </root>
    </mxGraphModel>
  </diagram>
</mxfile>
